<?xml version="1.0" encoding="utf-8"?>
<!-- Generator: Adobe Illustrator 16.0.0, SVG Export Plug-In . SVG Version: 6.00 Build 0)  -->
<!DOCTYPE svg PUBLIC "-//W3C//DTD SVG 1.1//EN" "http://www.w3.org/Graphics/SVG/1.1/DTD/svg11.dtd">
<svg version="1.1" id="Layer_1" xmlns="http://www.w3.org/2000/svg" xmlns:xlink="http://www.w3.org/1999/xlink" x="0px" y="0px"
	 width="496.667px" height="108.667px" viewBox="0 0 496.667 108.667" enable-background="new 0 0 496.667 108.667"
	 xml:space="preserve">
<g>
	<g>
		<path fill="#FFFFFF" d="M77.607,67.336c-4.003,4.995-9.264,7.492-15.781,7.492c-2.728,0-5.226-0.461-7.491-1.382
			c-2.268-0.921-4.207-2.195-5.818-3.825c-1.612-1.629-2.87-3.578-3.773-5.845s-1.354-4.765-1.354-7.492
			c0-2.692,0.442-5.181,1.328-7.466s2.144-4.269,3.772-5.951c1.629-1.682,3.578-2.993,5.846-3.932
			c2.266-0.938,4.764-1.408,7.491-1.408c3.082,0,5.934,0.514,8.556,1.541c2.621,1.027,4.835,2.815,6.642,5.366l-6.217,6.271
			c-0.992-1.347-2.179-2.427-3.561-3.241c-1.381-0.814-2.958-1.223-4.729-1.223c-1.488,0-2.816,0.248-3.985,0.744
			s-2.152,1.188-2.949,2.072c-0.797,0.886-1.408,1.922-1.833,3.108c-0.425,1.188-0.638,2.471-0.638,3.853
			c0,1.417,0.221,2.728,0.664,3.932c0.442,1.205,1.071,2.25,1.887,3.135c0.814,0.886,1.797,1.577,2.949,2.072
			c1.15,0.497,2.435,0.744,3.852,0.744c2.055,0,3.729-0.363,5.021-1.089s2.559-1.868,3.8-3.428L77.607,67.336z"/>
		<path fill="#FFFFFF" d="M78.797,38.484h9.405V59.26c0,1.948,0.451,3.542,1.354,4.782s2.399,1.859,4.49,1.859
			c2.09,0,3.577-0.629,4.463-1.887c0.886-1.257,1.329-2.843,1.329-4.755V38.484h9.511V60.11c0,2.268-0.372,4.313-1.116,6.138
			c-0.743,1.824-1.798,3.374-3.161,4.649c-1.364,1.274-2.976,2.25-4.835,2.922c-1.86,0.673-3.906,1.01-6.138,1.01
			s-4.286-0.337-6.163-1.01c-1.878-0.672-3.499-1.638-4.862-2.896c-1.364-1.257-2.418-2.798-3.161-4.623
			c-0.744-1.824-1.116-3.887-1.116-6.19V38.484z"/>
		<path fill="#FFFFFF" d="M116.38,62.713c0.991,0.992,2.285,1.896,3.879,2.71c1.594,0.815,3.348,1.223,5.261,1.223
			c0.46,0,0.938-0.044,1.435-0.133c0.495-0.088,0.938-0.239,1.328-0.452c0.39-0.212,0.708-0.495,0.956-0.85s0.372-0.814,0.372-1.382
			c0-0.921-0.47-1.682-1.408-2.285c-0.938-0.602-2.312-1.203-4.117-1.807l-1.967-0.638c-1.098-0.354-2.205-0.814-3.32-1.381
			c-1.116-0.566-2.117-1.249-3.003-2.046s-1.603-1.735-2.151-2.816c-0.55-1.08-0.824-2.346-0.824-3.799
			c0-1.629,0.301-3.144,0.903-4.543s1.479-2.621,2.631-3.667c1.15-1.044,2.577-1.859,4.277-2.443c1.7-0.585,3.666-0.877,5.897-0.877
			c1.735,0,3.313,0.159,4.729,0.478c1.416,0.319,2.656,0.709,3.72,1.169c1.063,0.461,1.966,0.957,2.71,1.488
			c0.743,0.531,1.31,1.01,1.7,1.435l-4.782,6.058c-1.24-0.921-2.533-1.674-3.879-2.259c-1.347-0.584-2.729-0.876-4.145-0.876
			c-0.461,0-0.922,0.053-1.382,0.159c-0.461,0.106-0.877,0.266-1.248,0.479c-0.372,0.212-0.674,0.487-0.903,0.823
			c-0.231,0.337-0.346,0.753-0.346,1.249c0,0.531,0.133,0.992,0.398,1.381c0.266,0.391,0.629,0.727,1.089,1.01
			c0.46,0.284,1.019,0.541,1.674,0.771c0.655,0.23,1.355,0.47,2.1,0.718l1.7,0.531c1.203,0.39,2.426,0.842,3.666,1.354
			c1.239,0.514,2.355,1.205,3.348,2.072c0.991,0.868,1.807,1.948,2.444,3.241c0.638,1.294,0.956,2.879,0.956,4.756
			c0,1.63-0.381,3.135-1.143,4.517s-1.789,2.568-3.082,3.56c-1.293,0.992-2.815,1.763-4.569,2.312
			c-1.753,0.549-3.622,0.824-5.605,0.824c-3.543,0-6.509-0.471-8.9-1.408c-2.391-0.938-4.419-2.205-6.084-3.8L116.38,62.713z"/>
		<path fill="#FFFFFF" d="M151.858,46.72h-10.893v-8.236h31.19v8.236H161.37v27.205h-9.512V46.72z"/>
		<path fill="#FFFFFF" d="M190.907,74.776c-2.656,0-5.109-0.471-7.358-1.408c-2.25-0.938-4.198-2.232-5.846-3.879
			c-1.646-1.647-2.932-3.613-3.852-5.898c-0.922-2.285-1.382-4.772-1.382-7.466c0-2.691,0.46-5.181,1.382-7.465
			c0.92-2.285,2.205-4.251,3.852-5.898c1.647-1.647,3.596-2.931,5.846-3.853c2.249-0.92,4.702-1.381,7.358-1.381
			c2.657,0,5.119,0.461,7.387,1.381c2.266,0.922,4.215,2.205,5.845,3.853c1.629,1.647,2.904,3.613,3.825,5.898
			c0.921,2.284,1.382,4.773,1.382,7.465c0,2.693-0.461,5.181-1.382,7.466s-2.196,4.251-3.825,5.898
			c-1.63,1.646-3.579,2.94-5.845,3.879C196.026,74.305,193.564,74.776,190.907,74.776z M190.907,65.955
			c1.382,0,2.612-0.256,3.693-0.771c1.08-0.513,1.992-1.213,2.736-2.099c0.744-0.885,1.311-1.93,1.7-3.135
			c0.39-1.204,0.585-2.479,0.585-3.826c0-1.346-0.195-2.621-0.585-3.825s-0.956-2.249-1.7-3.135s-1.656-1.585-2.736-2.1
			c-1.081-0.513-2.312-0.771-3.693-0.771c-1.381,0-2.612,0.258-3.692,0.771c-1.081,0.515-1.992,1.214-2.736,2.1
			s-1.312,1.931-1.7,3.135c-0.391,1.204-0.585,2.479-0.585,3.825c0,1.347,0.194,2.622,0.585,3.826c0.389,1.205,0.956,2.25,1.7,3.135
			c0.744,0.886,1.655,1.586,2.736,2.099C188.294,65.699,189.526,65.955,190.907,65.955z"/>
		<path fill="#FFFFFF" d="M213.405,38.484h8.979l8.608,15.463l8.448-15.463h9.033l1.646,35.441h-9.511l-0.851-20.776l-6.217,12.115
			h-5.154l-6.907-12.115l-0.69,20.776h-9.033L213.405,38.484z"/>
	</g>
	<g>
		<path fill="none" stroke="#FFFFFF" stroke-width="1.887" d="M287.922,68.277c-0.578,0.667-1.29,1.313-2.135,1.935
			c-0.846,0.624-1.813,1.18-2.902,1.668c-1.091,0.49-2.303,0.878-3.637,1.168c-1.335,0.289-2.781,0.434-4.338,0.434
			c-2.358,0-4.57-0.4-6.64-1.201c-2.068-0.801-3.87-1.935-5.404-3.402c-1.535-1.469-2.736-3.236-3.604-5.306
			c-0.867-2.068-1.301-4.37-1.301-6.906c0-2.357,0.434-4.548,1.301-6.572c0.867-2.023,2.068-3.792,3.604-5.305
			c1.534-1.512,3.336-2.691,5.404-3.537c2.069-0.845,4.281-1.268,6.64-1.268c3.113,0,5.728,0.49,7.841,1.468
			c2.112,0.979,3.837,2.226,5.171,3.737l-6.605,7.54c-0.49-0.578-1.18-1.201-2.068-1.868c-0.891-0.668-2.226-1.001-4.004-1.001
			c-1.558,0-2.937,0.611-4.138,1.835c-1.2,1.224-1.801,2.881-1.801,4.971c0,1.024,0.166,1.969,0.5,2.836
			c0.334,0.868,0.768,1.602,1.301,2.202c0.534,0.601,1.156,1.067,1.869,1.401c0.711,0.334,1.468,0.501,2.269,0.501
			c0.845,0,1.602-0.101,2.269-0.301s1.245-0.456,1.735-0.768c0.488-0.311,0.9-0.634,1.234-0.968c0.333-0.333,0.61-0.61,0.834-0.834
			L287.922,68.277z"/>
		<path fill="none" stroke="#FFFFFF" stroke-width="1.887" d="M289.437,56.733c0-2.313,0.41-4.493,1.234-6.54
			c0.822-2.045,1.968-3.825,3.437-5.338c1.468-1.512,3.225-2.702,5.271-3.57c2.045-0.867,4.314-1.301,6.806-1.301
			s4.76,0.434,6.807,1.301c2.046,0.868,3.804,2.059,5.271,3.57c1.468,1.513,2.612,3.293,3.437,5.338
			c0.822,2.047,1.234,4.228,1.234,6.54c0,2.358-0.412,4.549-1.234,6.572c-0.824,2.024-1.969,3.793-3.437,5.305
			c-1.468,1.513-3.226,2.703-5.271,3.57c-2.047,0.867-4.315,1.301-6.807,1.301s-4.761-0.434-6.806-1.301
			c-2.047-0.867-3.804-2.058-5.271-3.57c-1.469-1.512-2.614-3.28-3.437-5.305C289.847,61.282,289.437,59.091,289.437,56.733z
			 M306.185,63.606c1.868,0,3.358-0.645,4.471-1.936c1.111-1.29,1.669-2.937,1.669-4.938c0-2.002-0.558-3.647-1.669-4.938
			c-1.112-1.289-2.603-1.935-4.471-1.935s-3.359,0.646-4.471,1.935c-1.112,1.291-1.668,2.937-1.668,4.938
			c0,2.001,0.556,3.647,1.668,4.938C302.826,62.961,304.317,63.606,306.185,63.606z"/>
		<path fill="none" stroke="#FFFFFF" stroke-width="1.887" d="M328.131,41.051h10.877l0.4,3.938c0.89-1.245,1.99-2.303,3.303-3.17
			c1.312-0.867,2.902-1.301,4.771-1.301c0.889,0,1.656,0.044,2.302,0.133c0.645,0.09,1.212,0.224,1.701,0.4l-1.468,9.609
			c-1.067-0.268-2.158-0.4-3.27-0.4c-4.894,0-7.34,2.691-7.34,8.073v14.08h-11.277V41.051z"/>
		<path fill="none" stroke="#FFFFFF" stroke-width="1.887" d="M357.758,41.051h10.877l0.4,3.27c0.622-0.756,1.334-1.401,2.135-1.935
			c0.801-0.534,1.624-0.956,2.47-1.268c0.844-0.312,1.656-0.534,2.436-0.668c0.777-0.133,1.456-0.2,2.035-0.2
			c1.645,0,3.169,0.233,4.57,0.701c1.401,0.467,2.613,1.201,3.637,2.202c1.022,1.001,1.823,2.291,2.402,3.87
			c0.577,1.579,0.867,3.459,0.867,5.638v19.752h-11.276V55.332c0-1.557-0.323-2.803-0.968-3.737
			c-0.646-0.934-1.68-1.401-3.103-1.401c-1.024,0-1.869,0.156-2.536,0.468s-1.201,0.733-1.602,1.268s-0.679,1.124-0.834,1.769
			c-0.156,0.645-0.233,1.301-0.233,1.968v16.749h-11.277V41.051z"/>
		<path fill="none" stroke="#FFFFFF" stroke-width="1.887" d="M425.687,70.145c-0.533,0.312-1.212,0.656-2.035,1.034
			s-1.791,0.734-2.902,1.067c-1.112,0.334-2.358,0.623-3.736,0.867c-1.38,0.244-2.848,0.367-4.404,0.367
			c-5.783,0-10.21-1.456-13.279-4.37c-3.069-2.913-4.604-6.995-4.604-12.245c0-2.09,0.333-4.147,1-6.172
			c0.668-2.024,1.679-3.825,3.036-5.405c1.356-1.578,3.07-2.857,5.139-3.837c2.068-0.978,4.481-1.468,7.24-1.468
			c2.135,0,4.147,0.367,6.038,1.101c1.891,0.734,3.537,1.847,4.938,3.337c1.401,1.491,2.502,3.359,3.303,5.604
			c0.801,2.247,1.201,4.883,1.201,7.908v2.135h-21.22c0.044,0.534,0.188,1.091,0.434,1.668c0.244,0.579,0.668,1.124,1.269,1.635
			c0.601,0.513,1.401,0.924,2.402,1.234c1,0.313,2.235,0.468,3.703,0.468c1.912,0,3.658-0.244,5.238-0.734
			c1.578-0.489,2.813-1.001,3.703-1.534L425.687,70.145z M416.613,53.396c0-0.534-0.112-1.09-0.334-1.668
			c-0.224-0.578-0.567-1.111-1.034-1.602c-0.467-0.489-1.046-0.9-1.735-1.234c-0.69-0.334-1.524-0.501-2.502-0.501
			c-0.935,0-1.758,0.167-2.469,0.501c-0.712,0.334-1.291,0.745-1.735,1.234c-0.445,0.49-0.778,1.023-1.001,1.602
			s-0.333,1.134-0.333,1.668H416.613z"/>
		<path fill="none" stroke="#FFFFFF" stroke-width="1.887" d="M431.986,41.051h10.877l0.4,3.938c0.89-1.245,1.99-2.303,3.303-3.17
			c1.312-0.867,2.902-1.301,4.771-1.301c0.889,0,1.656,0.044,2.302,0.133c0.645,0.09,1.212,0.224,1.701,0.4l-1.468,9.609
			c-1.067-0.268-2.158-0.4-3.27-0.4c-4.894,0-7.34,2.691-7.34,8.073v14.08h-11.277V41.051z"/>
	</g>
	<g>
		<path fill="#FFFFFF" d="M97.035,7.437h-6.189v-4.68h17.723v4.68h-6.129v15.458h-5.404V7.437z"/>
		<path fill="#FFFFFF" d="M110.983,2.757h5.344v7.366h7.428V2.757h5.344v20.138h-5.344v-7.88h-7.428v7.88h-5.344V2.757z"/>
		<path fill="#FFFFFF" d="M132.721,2.757h14.492v4.619h-9.148v3.109h7.518v4.348h-7.518v3.442h9.782v4.619h-15.126V2.757z"/>
	</g>
	<circle fill="none" stroke="#FFFFFF" stroke-width="2.516" stroke-miterlimit="10" cx="28.189" cy="56.656" r="6.817"/>
	<circle fill="#FFFFFF" cx="470.999" cy="56.656" r="6.817"/>
	<g>
		<g>
			<g>
				<path fill-rule="evenodd" clip-rule="evenodd" fill="#FFFFFF" d="M103.527,96.596c-0.012,0.005-0.191,0.01-0.518,0.013
					c-0.328,0.001-0.804,0.004-1.41,0.007c-1.213-0.001-2.947-0.002-5.058-0.004c-4.221-0.014-9.947-0.032-16.012-0.052
					c-12.13-0.048-25.619-0.102-31.15-0.124c-13.493-0.041-25.834-0.079-36.42-0.111C12.95,82.83,12.941,70.167,12.933,57.31
					c-0.038-7.273-0.075-14.602-0.114-22.129c-0.029-3.764-0.059-7.577-0.089-11.459c-0.018-1.94-0.036-3.898-0.054-5.875
					l-0.007-0.742l-0.002-0.106l-0.002-0.011l-0.003-0.022l-0.015-0.097l-0.031-0.223c0.067-0.013,0.138-0.027,0.211-0.041
					l0.134-0.021c0.534-0.007,1.077-0.015,1.627-0.022c2.416-0.03,4.961-0.063,7.544-0.096c4.866-0.063,11.369-0.227,16.696-0.389
					c2.664-0.09,5.033-0.17,6.757-0.228c1.724-0.067,2.803-0.121,2.884-0.149c-0.277,0.097-6.29,0.095-14.306,0.055
					c-4.008-0.025-8.518-0.052-13.063-0.08c-2.272-0.016-4.553-0.031-6.785-0.046c-0.633-0.008-1.259-0.016-1.875-0.023
					c-0.302-0.007-0.599-0.014-0.888-0.021c-0.011,0.48-0.021,0.94-0.03,1.369c-0.007,1.506-0.014,2.905-0.021,4.165
					c0,2.6,0,4.623,0,5.796c0.2,16.357,0.456,37.315,0.68,55.728c0.023,4.761,0.046,9.574,0.069,14.393
					c16.474,0.134,33.005,0.268,48.286,0.392c16.681,0.116,31.997,0.102,44.521-0.399C105.72,96.997,104.086,96.35,103.527,96.596z"
					/>
				<path fill-rule="evenodd" clip-rule="evenodd" fill="#FFFFFF" d="M183.943,97.681c0.83-0.222-32.376-0.519-35.566-0.529
					c-10.4-0.03-31.873-1.097-35.582-0.105c0.142-0.038,2.026-0.024,4.875,0.016c2.849,0.05,6.663,0.115,10.664,0.185
					c8.001,0.148,16.751,0.318,20.028,0.328C155.273,97.595,180.235,98.672,183.943,97.681z"/>
				<path fill-rule="evenodd" clip-rule="evenodd" fill="#FFFFFF" d="M292.222,98.426c-20.759-1.496-71.57-0.157-102.125,0.118
					c-42.695,0.386-88.934-1.234-134.579-0.822c-8.008,0.051-16.001,0.102-23.957,0.152c-6.777,0.021-13.521,0.043-20.215,0.063
					c-0.038-14.263-0.075-28.36-0.112-42.181c-0.056-7.487-0.111-14.898-0.167-22.221c-0.046-3.661-0.091-7.299-0.137-10.913
					c-0.028-1.807-0.057-3.608-0.085-5.403c-0.033-0.817-0.065-1.632-0.097-2.444c0.64-0.03,1.276-0.06,1.909-0.09
					c1.341-0.033,2.674-0.066,4.001-0.099c2.91-0.077,5.791-0.153,8.653-0.228c9.362-0.271,1.505-0.524,7.772-0.822
					c1.583-0.076,39.281-0.542,37.197-1.581c-1.593-0.795-53.401-0.036-21.626-0.911c9.067-0.249,24.416-1.1,21.757-2.471
					c0.25,0.128,5.585-0.241-3.074-0.432c-9.178-0.202-19.063-0.069-29.149,0.034C33.145,8.23,28.051,8.275,22.97,8.268
					c-2.541-0.019-5.078-0.038-7.604-0.057C11.562,8.155,7.775,8.099,4.014,8.042c-0.027,1.381-0.055,2.737-0.082,4.091
					c-0.164,6.558-0.341,13.638-0.528,21.131c-0.13,6.751-0.219,13.877-0.276,21.277c-0.029,7.4-0.06,15.076-0.091,22.929
					c0.009,9.411,0.019,19.033,0.028,28.748c18.831-0.05,38.046-0.1,56.588-0.148c16.982-0.018,33.348,0.034,48.129,0.262
					c51.56,0.794,104.367-0.353,153.212-0.813c27.799-0.263,53.71,0.354,83.559-0.174c13.965-0.249,54.015-0.815,55.764-1.525
					c-5.069,2.059-7.285-2.56-3.025-1.7c-6.508-1.314-50.096-0.945-63.398-1.034c-22.47-0.15-35.188-0.268-10.813-0.455
					c6.166-0.048,22.162-0.211,6.222-0.826c-2.998-0.117-41.012-0.008-43.285-0.974C286.588,99.071,290.834,98.326,292.222,98.426z"
					/>
				<path fill-rule="evenodd" clip-rule="evenodd" fill="#FFFFFF" d="M65.672,11.098c-0.74,0.198,2.644,0.547,3.075,0.432
					C69.487,11.332,66.102,10.983,65.672,11.098z"/>
				<path fill-rule="evenodd" clip-rule="evenodd" fill="#FFFFFF" d="M70.312,11.112c-0.787,0.21,3.828,0.649,4.627,0.436
					C75.726,11.338,71.111,10.899,70.312,11.112z"/>
			</g>
		</g>
	</g>
	<g>
		<g>
			<g>
				<path fill-rule="evenodd" clip-rule="evenodd" fill="#FFFFFF" d="M383.973,4.48c0.009,0.005,0.141,0.009,0.383,0.013
					c0.242,0.001,0.594,0.003,1.043,0.006c0.896-0.001,2.179-0.002,3.739-0.003c3.121-0.014,7.354-0.032,11.839-0.051
					c8.968-0.048,18.941-0.103,23.03-0.125c12.2-0.042,23.285-0.079,34.005-0.116c12.437,0.013,24.45,0.026,36.912,0.04
					c-0.021,4.83-0.044,9.754-0.067,14.791c-0.032,3.301-0.066,6.676-0.101,10.137c-0.102,6.921-0.208,14.187-0.321,21.895
					c-0.063,3.598-0.228,8.405-0.389,12.345c-0.09,1.969-0.17,3.721-0.229,4.996c-0.067,1.274-0.121,2.072-0.149,2.132
					c0.068-0.146,0.088-2.425,0.078-5.854c-0.023-3.429-0.055-8.007-0.088-12.751c-0.086-9.488-0.195-19.638-0.155-22.576
					c0.045-2.938,0.093-6.076,0.145-9.414c0.028-1.668,0.057-3.386,0.087-5.154c0.029-3.064,0.061-6.214,0.092-9.449
					c-2.972-0.032-6.032-0.064-9.146-0.098c-1.753-0.031-3.536-0.063-5.328-0.095c-3.586-0.055-7.21-0.11-10.71-0.164
					c-30.871-0.407-64.038,1.101-85.802-0.077C382.352,4.881,383.56,4.234,383.973,4.48z"/>
				<path fill-rule="evenodd" clip-rule="evenodd" fill="#FFFFFF" d="M324.517,5.565c-0.613-0.222,23.938-0.519,26.296-0.529
					c7.689-0.03,23.565-1.097,26.309-0.105c-0.105-0.038-1.498-0.025-3.604,0.016c-2.106,0.049-4.926,0.115-7.884,0.184
					c-5.916,0.148-12.386,0.318-14.809,0.328C345.714,5.479,327.258,6.556,324.517,5.565z"/>
				<path fill-rule="evenodd" clip-rule="evenodd" fill="#FFFFFF" d="M244.459,6.31c15.349-1.496,52.917-0.158,75.508,0.119
					c31.566,0.385,65.753-1.235,99.502-0.823c11.953,0.146,23.863,0.19,35.625,0.218c12.911,0.041,25.66,0.081,38.13,0.12
					c-0.016,3.042-0.03,6.07-0.046,9.086c-0.021,1.888-0.041,3.769-0.061,5.64c-0.059,3.743-0.115,7.453-0.172,11.128
					c-0.141,7.35-0.337,14.561-0.614,21.619c-0.271,6.921-0.524,1.112-0.821,5.746c-0.076,1.171-0.542,29.043-1.581,27.502
					c-0.795-1.178-0.036-39.483-0.91-15.99c-0.249,6.704-1.1,18.053-2.472,16.087c0.129,0.185-0.24,4.13-0.432-2.272
					c-0.419-14.108,0.604-30.475-0.184-45.755c-0.223-4.303-0.393-8.946-0.522-13.866c-0.054-2.46-0.108-4.989-0.165-7.58
					c-0.011-0.647-0.021-1.299-0.032-1.954l-0.016-0.86l-0.014-0.096l-0.05-0.343l-0.297,0.031l-0.135,0.013l-1.395,0.012
					c-2.202,0.01-4.433,0.021-6.686,0.031c-4.505,0.001-9.103,0.002-13.756,0.004c-9.306-0.037-18.836-0.075-28.302-0.113
					c-18.933-0.085-37.61-0.133-53.737,0.202c-38.122,0.794-77.165-0.352-113.279-0.812c-20.554-0.263-39.711,0.354-61.78-0.174
					c-10.325-0.249-39.937-0.815-41.229-1.525c3.748,2.059,5.387-2.56,2.236-1.701c4.812-1.314,37.04-0.945,46.875-1.034
					c16.613-0.15,26.017-0.267,7.994-0.455c-4.559-0.047-16.385-0.21-4.6-0.826c2.216-0.117,30.322-0.008,32.003-0.974
					C248.625,6.955,245.485,6.209,244.459,6.31z"/>
				<path fill-rule="evenodd" clip-rule="evenodd" fill="#FFFFFF" d="M489.07,83.257c0.197-0.547,0.548,1.955,0.432,2.273
					C489.304,86.078,488.955,83.575,489.07,83.257z"/>
				<path fill-rule="evenodd" clip-rule="evenodd" fill="#FFFFFF" d="M489.084,86.688c0.21-0.582,0.649,2.83,0.436,3.421
					C489.309,90.691,488.871,87.279,489.084,86.688z"/>
			</g>
		</g>
	</g>
</g>
</svg>
